<svg id="svg" version="1.1" xmlns="http://www.w3.org/2000/svg" xmlns:xlink="http://www.w3.org/1999/xlink" width="400" height="400" viewBox="0, 0, 400,400"><g id="svgg"><path id="path0" d="M193.261 69.576 C 162.671 71.911,139.063 97.734,139.063 128.859 L 139.063 132.813 146.582 132.811 C 150.718 132.810,156.041 132.697,158.411 132.561 L 162.721 132.312 162.571 131.030 C 161.101 118.435,170.060 103.125,182.615 96.779 C 209.336 83.273,239.374 106.856,232.802 136.181 C 230.880 144.755,226.891 150.033,212.427 163.136 C 188.542 184.772,186.032 188.731,185.641 205.371 L 185.464 212.891 196.789 212.891 L 208.114 212.891 208.288 207.520 C 208.632 196.853,210.423 194.259,227.539 179.629 C 250.501 160.003,256.839 148.633,256.794 127.148 C 256.720 91.713,229.259 66.828,193.261 69.576 M203.260 118.589 L 189.137 125.809 185.127 134.682 C 182.922 139.562,179.761 146.543,178.103 150.195 C 176.445 153.848,175.142 156.895,175.209 156.968 C 175.275 157.041,181.788 153.762,189.682 149.682 L 204.035 142.264 210.727 127.278 C 214.408 119.036,217.553 112.075,217.717 111.810 C 218.245 110.955,217.593 111.261,203.260 118.589 M200.012 130.488 C 200.257 130.885,200.862 137.553,200.670 137.738 C 200.624 137.783,199.071 137.467,197.220 137.036 L 193.853 136.253 193.606 133.889 C 193.471 132.590,193.359 130.967,193.359 130.283 L 193.359 129.040 196.552 129.548 C 198.308 129.828,199.865 130.251,200.012 130.488 M303.516 228.711 L 303.516 235.938 298.828 235.938 L 294.141 235.938 294.140 241.895 L 294.139 247.852 298.598 247.731 L 303.058 247.610 303.228 263.746 C 303.412 281.148,303.517 282.114,305.615 285.694 C 309.274 291.937,319.178 294.512,329.492 291.903 L 332.227 291.211 332.335 285.619 L 332.444 280.027 330.577 280.329 C 327.114 280.889,323.548 280.608,321.579 279.620 C 317.802 277.725,317.533 276.386,317.670 260.135 L 317.773 247.852 325.098 247.852 L 332.422 247.852 332.422 241.895 L 332.422 235.938 325.195 235.938 L 317.969 235.938 317.969 228.711 L 317.969 221.484 310.742 221.484 L 303.516 221.484 303.516 228.711 M78.707 235.142 C 67.257 237.568,60.997 246.396,63.422 256.698 C 65.146 264.020,70.133 267.100,83.594 269.155 C 92.724 270.548,94.996 271.653,95.848 275.113 C 97.811 283.081,79.039 284.817,75.788 276.969 L 75.296 275.781 68.365 275.781 L 61.435 275.781 61.807 277.832 C 63.555 287.458,72.390 292.793,86.523 292.758 C 102.489 292.718,110.493 285.690,109.320 272.739 C 108.549 264.233,103.195 260.414,88.642 257.990 C 77.938 256.207,74.221 252.868,77.307 247.807 C 80.355 242.809,92.963 244.241,94.979 249.816 L 95.469 251.172 101.854 251.172 L 108.239 251.172 107.973 249.707 C 106.743 242.923,101.632 237.819,93.945 235.698 C 91.286 234.965,81.271 234.599,78.707 235.142 M134.459 235.554 C 117.297 240.051,108.873 261.897,117.592 279.297 C 126.278 296.632,156.356 297.931,165.154 281.351 C 166.188 279.403,167.969 274.976,167.969 274.353 C 167.969 274.279,164.820 274.219,160.971 274.219 L 153.973 274.219 152.584 276.111 C 143.213 288.876,126.003 277.370,128.887 260.268 C 131.136 246.936,146.330 241.922,152.825 252.369 L 154.023 254.297 160.655 254.297 L 167.287 254.297 167.036 252.722 C 164.947 239.659,149.620 231.582,134.459 235.554 M194.727 235.019 C 165.361 241.123,162.844 284.376,191.406 292.088 C 195.013 293.062,205.391 293.034,208.984 292.041 C 235.951 284.588,235.289 242.061,208.104 235.543 C 205.083 234.819,197.178 234.509,194.727 235.019 M235.572 255.176 C 235.511 282.070,236.039 284.727,242.400 289.546 C 249.997 295.300,266.008 293.373,272.368 285.939 L 273.633 284.461 273.497 288.129 L 273.362 291.797 280.431 291.797 L 287.500 291.797 287.500 263.867 L 287.500 235.938 280.491 235.938 L 273.482 235.938 273.350 253.027 C 273.201 272.292,273.048 273.424,270.117 276.848 C 266.112 281.527,257.437 282.241,253.309 278.232 C 250.151 275.166,250.210 275.597,250.077 254.590 L 249.958 235.938 242.787 235.938 L 235.615 235.938 235.572 255.176 M205.078 247.944 C 218.181 252.589,217.638 276.078,204.338 279.945 C 194.430 282.825,185.949 275.500,185.949 264.063 C 185.949 251.958,194.967 244.360,205.078 247.944 " stroke="none" fill="#0c65bb" fill-rule="evenodd"></path><path id="path1" d="M0.000 200.000 L 0.000 400.000 200.000 400.000 L 400.000 400.000 400.000 200.000 L 400.000 0.000 200.000 0.000 L 0.000 0.000 0.000 200.000 M205.373 69.535 C 238.936 73.071,261.546 102.635,256.466 136.339 C 253.907 153.312,247.769 162.460,226.953 180.321 C 210.339 194.578,208.215 197.857,208.206 209.277 L 208.203 212.891 196.680 212.891 L 185.156 212.891 185.156 208.291 C 185.156 190.453,188.285 185.009,209.765 165.470 C 221.985 154.355,224.455 151.892,227.040 148.242 C 237.109 134.027,235.568 115.708,223.257 103.294 C 201.621 81.474,164.184 96.476,162.996 127.441 L 162.790 132.812 151.317 132.813 C 145.007 132.813,139.712 132.856,139.551 132.910 C 137.841 133.480,139.676 117.182,142.157 109.762 C 149.877 86.672,167.731 72.545,193.164 69.402 C 195.608 69.101,201.897 69.169,205.373 69.535 M217.563 112.207 C 217.349 112.690,214.230 119.669,210.633 127.715 L 204.092 142.343 196.284 146.378 C 177.279 156.200,175.000 157.348,174.996 157.099 C 174.994 156.954,178.178 149.794,182.071 141.186 L 189.151 125.537 203.267 118.454 C 218.757 110.683,218.113 110.964,217.563 112.207 M193.595 132.520 C 193.899 136.382,193.592 136.037,197.587 137.017 L 200.837 137.815 200.630 136.388 C 200.516 135.603,200.313 133.881,200.178 132.562 L 199.933 130.163 197.021 129.730 C 195.419 129.492,193.936 129.297,193.725 129.297 C 193.484 129.297,193.436 130.497,193.595 132.520 M317.969 228.711 L 317.969 235.938 325.195 235.938 L 332.422 235.938 332.422 241.992 L 332.422 248.047 325.195 248.047 L 317.969 248.047 317.969 261.636 C 317.969 277.229,318.079 277.819,321.289 279.469 C 323.101 280.400,328.095 280.759,330.762 280.150 L 332.422 279.771 332.422 285.541 L 332.422 291.311 329.785 291.994 C 320.761 294.330,311.563 292.579,307.077 287.671 C 303.479 283.734,303.370 283.072,303.212 264.160 L 303.078 248.047 298.628 248.047 L 294.179 248.047 294.062 241.992 L 293.945 235.936 298.730 235.937 L 303.516 235.938 303.516 228.711 L 303.516 221.484 310.742 221.484 L 317.969 221.484 317.969 228.711 M93.427 235.544 C 101.288 237.491,107.016 242.965,108.043 249.512 L 108.303 251.172 101.883 251.172 L 95.463 251.172 94.757 249.573 C 91.781 242.826,76.563 243.552,76.563 250.440 C 76.563 254.807,79.198 256.378,89.244 257.999 C 102.923 260.207,108.190 263.922,109.482 272.274 C 111.440 284.924,102.705 292.717,86.523 292.756 C 72.355 292.791,63.755 287.732,61.758 278.190 C 61.157 275.316,60.980 275.389,68.480 275.404 L 75.195 275.417 76.367 277.446 C 80.440 284.496,95.703 283.279,95.703 275.903 C 95.703 272.331,92.580 270.554,84.180 269.346 C 71.081 267.463,65.645 264.398,63.628 257.756 C 58.958 242.381,74.439 230.841,93.427 235.544 M150.513 235.528 C 159.216 237.755,165.162 243.913,167.149 252.758 L 167.495 254.297 160.505 254.297 C 156.008 254.297,153.516 254.155,153.516 253.898 C 153.516 250.560,146.300 246.497,141.299 247.020 C 129.023 248.303,124.072 267.332,133.415 277.321 C 138.852 283.134,148.892 282.004,153.181 275.098 L 153.970 273.828 160.969 273.828 C 168.864 273.828,168.412 273.589,167.197 277.121 C 159.700 298.912,124.827 298.572,116.305 276.625 C 106.889 252.375,126.110 229.284,150.513 235.528 M204.895 234.792 C 235.435 239.040,237.545 286.386,207.463 292.406 C 186.887 296.524,171.676 284.724,171.682 264.648 C 171.687 244.786,185.765 232.131,204.895 234.792 M250.474 254.980 C 250.600 276.403,250.495 275.640,253.690 278.445 C 258.570 282.730,268.312 280.754,271.361 274.861 C 273.043 271.611,273.153 270.381,273.334 252.832 L 273.508 235.938 280.699 235.938 L 287.891 235.938 287.891 263.867 L 287.891 291.797 280.664 291.797 L 273.438 291.797 273.438 288.357 L 273.438 284.917 271.266 287.020 C 263.470 294.571,248.126 295.156,240.753 288.183 C 235.835 283.532,235.562 281.860,235.554 256.348 L 235.547 235.938 242.955 235.938 L 250.362 235.938 250.474 254.980 M195.830 247.806 C 182.796 252.060,182.785 275.791,195.816 279.748 C 208.189 283.507,217.805 271.265,213.482 257.260 C 211.143 249.684,203.165 245.411,195.830 247.806 " stroke="none" fill="#fbfbfb" fill-rule="evenodd"></path><path id="path2" d="M85.645 234.644 C 86.021 234.743,86.636 234.743,87.012 234.644 C 87.388 234.546,87.080 234.466,86.328 234.466 C 85.576 234.466,85.269 234.546,85.645 234.644 M250.179 253.320 C 250.180 262.773,250.230 266.585,250.293 261.790 C 250.355 256.995,250.355 249.261,250.292 244.602 C 250.230 239.944,250.179 243.867,250.179 253.320 M157.109 274.119 C 158.978 274.190,162.142 274.190,164.140 274.119 C 166.139 274.048,164.609 273.990,160.742 273.990 C 156.875 273.989,155.240 274.047,157.109 274.119 M64.922 275.681 C 66.791 275.753,69.955 275.753,71.953 275.682 C 73.951 275.611,72.422 275.552,68.555 275.552 C 64.688 275.552,63.053 275.610,64.922 275.681 " stroke="none" fill="#8db7e2" fill-rule="evenodd"></path><path id="path3" d="M287.591 239.063 C 287.591 239.814,287.671 240.122,287.769 239.746 C 287.868 239.370,287.868 238.755,287.769 238.379 C 287.671 238.003,287.591 238.311,287.591 239.063 M287.606 242.188 C 287.606 243.154,287.683 243.550,287.776 243.066 C 287.869 242.583,287.869 241.792,287.776 241.309 C 287.683 240.825,287.606 241.221,287.606 242.188 M287.625 247.266 C 287.625 248.662,287.696 249.233,287.783 248.535 C 287.869 247.837,287.869 246.694,287.783 245.996 C 287.696 245.298,287.625 245.869,287.625 247.266 " stroke="none" fill="#74b4de" fill-rule="evenodd"></path><path id="path4" d="M158.105 132.704 C 158.804 132.791,159.946 132.791,160.645 132.704 C 161.343 132.618,160.771 132.547,159.375 132.547 C 157.979 132.547,157.407 132.618,158.105 132.704 M215.995 189.746 L 214.648 191.211 216.113 189.865 C 217.477 188.612,217.758 188.281,217.459 188.281 C 217.394 188.281,216.735 188.940,215.995 189.746 M185.301 207.813 C 185.301 210.068,185.365 210.991,185.444 209.863 C 185.523 208.735,185.523 206.890,185.444 205.762 C 185.365 204.634,185.301 205.557,185.301 207.813 M141.309 234.651 C 141.792 234.744,142.583 234.744,143.066 234.651 C 143.550 234.558,143.154 234.481,142.188 234.481 C 141.221 234.481,140.825 234.558,141.309 234.651 M296.582 247.945 C 297.817 248.022,299.839 248.022,301.074 247.945 C 302.310 247.867,301.299 247.804,298.828 247.804 C 296.357 247.804,295.347 247.867,296.582 247.945 M321.992 247.947 C 323.882 248.019,326.871 248.019,328.632 247.947 C 330.394 247.874,328.848 247.816,325.195 247.816 C 321.543 247.817,320.101 247.876,321.992 247.947 M317.750 259.375 C 317.750 265.498,317.804 268.003,317.870 264.941 C 317.936 261.880,317.936 256.870,317.870 253.809 C 317.804 250.747,317.750 253.252,317.750 259.375 M287.648 261.719 C 287.648 264.189,287.711 265.200,287.789 263.965 C 287.866 262.729,287.866 260.708,287.789 259.473 C 287.711 258.237,287.648 259.248,287.648 261.719 M287.664 273.828 C 287.664 278.018,287.721 279.731,287.791 277.637 C 287.861 275.542,287.861 272.114,287.791 270.020 C 287.721 267.925,287.664 269.639,287.664 273.828 M287.649 286.133 C 287.650 288.711,287.713 289.715,287.790 288.364 C 287.866 287.012,287.865 284.903,287.788 283.676 C 287.711 282.449,287.648 283.555,287.649 286.133 " stroke="none" fill="#7c9cd4" fill-rule="evenodd"></path></g></svg>